#!OML:ASF F:\VICON\USERDATA\INSTALL\rory3\rory3.ASF
:FULLY-SPECIFIED
:DEGREES
2543
root 1.95717 17.6319 7.21532 189.19 -114.071 -190.368
lowerback 4.27642 1.87174 -3.37866
upperback -2.39536 2.3525 1.5622
thorax -5.09062 1.30795 3.31348
lowerneck -26.2001 -2.04324 -12.0575
upperneck 20.6332 -0.52158 8.98557
head 11.0461 -0.0462927 5.23976
rclavicle 2.91468e-014 -5.56597e-015
rhumerus 49.8769 -33.1362 -14.8081
rradius 78.5195
rwrist 5.86126
rhand -34.735 4.00005
rfingers 7.12502
rthumb -7.88898 -25.8327
lclavicle 2.91468e-014 -5.56597e-015
lhumerus 43.1416 29.166 18.6107
lradius 89.7796
lwrist 10.783
lhand -19.4582 13.6117
lfingers 7.12502
lthumb 6.86283 43.4805
rfemur -10.7631 -2.62943 13.7498
rtibia 35.5543
rfoot -23.9557 -15.203
rtoes 9.97052
lfemur -8.15012 -1.80237 -15.341
ltibia 32.3738
lfoot -18.2895 10.4114
ltoes -11.2676
2544
root 2.00292 17.6495 7.21672 189.973 -113.999 -191.049
lowerback 4.31208 1.98052 -3.00108
upperback -2.20125 2.51799 1.46102
thorax -4.89852 1.36983 2.98228
lowerneck -26.1963 -1.99973 -11.8552
upperneck 20.5991 -0.471067 8.72862
head 11.0256 -0.0392068 5.11429
rclavicle -7.7849e-014 -1.98785e-014
rhumerus 47.2202 -32.2753 -13.8878
rradius 82.4882
rwrist 6.02775
rhand -35.105 3.4664
rfingers 7.12502
rthumb -8.24611 -26.3527
lclavicle -7.7849e-014 -1.98785e-014
lhumerus 40.1605 28.093 19.3292
lradius 92.4258
lwrist 10.3978
lhand -19.6772 13.9124
lfingers 7.12502
lthumb 6.65141 43.7879
rfemur -11.1768 -2.98712 14.1613
rtibia 35.5053
rfoot -24.1009 -15.7838
rtoes 8.47944
lfemur -8.52068 -1.92399 -15.1723
ltibia 32.4912
lfoot -18.1352 10.8046
ltoes -11.1692
2545
root 2.05036 17.6614 7.21283 190.487 -113.856 -191.481
lowerback 4.38949 2.12046 -2.8092
upperback -1.9875 2.71407 1.40226
thorax -4.72135 1.4548 2.79672
lowerneck -25.9759 -1.972 -11.9062
upperneck 20.3163 -0.385532 8.56555
head 10.8705 -0.0216531 5.0592
rclavicle -4.38693e-014 6.36111e-015
rhumerus 44.6356 -31.2349 -12.9999
rradius 86.3906
rwrist 6.33393
rhand -35.8578 2.94317
rfingers 7.12502
rthumb -8.97261 -26.846
lclavicle -4.38693e-014 6.36111e-015
lhumerus 36.9228 27.0075 20.2621
lradius 94.9417
lwrist 9.90539
lhand -19.7707 13.1581
lfingers 7.12502
lthumb 6.56122 43.0365
rfemur -11.5362 -3.08341 14.4169
rtibia 35.4606
rfoot -24.5561 -16.0035
rtoes 8.08401
lfemur -8.8411 -1.964 -15.1093
ltibia 32.5972
lfoot -17.9425 11.1609
ltoes -11.2367
2546
root 2.09896 17.6733 7.20798 191.055 -113.704 -191.954
lowerback 4.50069 2.24481 -2.60194
upperback -1.80236 2.88812 1.3198
thorax -4.58824 1.52958 2.57869
lowerneck -25.8852 -1.90617 -11.8504
upperneck 20.1898 -0.288273 8.43689
head 10.7956 0.0125783 5.01003
rclavicle -4.64659e-014 1.66979e-014
rhumerus 42.095 -29.9752 -12.2696
rradius 90.1807
rwrist 6.86699
rhand -36.2299 2.82759
rfingers 7.12502
rthumb -9.33163 -26.9459
lclavicle -4.64659e-014 1.66979e-014
lhumerus 33.8716 25.8017 21.0747
lradius 96.9206
lwrist 9.47385
lhand -19.9562 12.5064
lfingers 7.12502
lthumb 6.38209 42.3903
rfemur -11.9255 -3.10684 14.6521
rtibia 35.4721
rfoot -24.3201 -15.8425
rtoes 10.0397
lfemur -9.1455 -2.00821 -15.0205
ltibia 32.6376
lfoot -17.7712 11.4444
ltoes -10.917
2547
root 2.14738 17.685 7.20528 191.605 -113.554 -192.394
lowerback 4.5998 2.3477 -2.44322
upperback -1.61286 3.03345 1.30791
thorax -4.44719 1.59304 2.4645
lowerneck -26.0595 -1.85528 -11.9102
upperneck 20.384 -0.148406 8.32357
head 10.8825 0.054429 5.00957
rclavicle -1.60022e-014 1.15295e-014
rhumerus 39.7425 -28.4911 -11.6277
rradius 93.9069
rwrist 7.57425
rhand -36.1687 2.72927
rfingers 7.12502
rthumb -9.27259 -27.0468
lclavicle -1.60022e-014 1.15295e-014
lhumerus 30.5461 24.4789 22.0491
lradius 98.6629
lwrist 8.94709
lhand -20.444 12.1985
lfingers 7.12502
lthumb 5.91113 42.0961
rfemur -12.3403 -3.16596 14.8523
rtibia 35.5401
rfoot -23.7684 -15.644
rtoes 10.7319
lfemur -9.42961 -2.07718 -14.9531
ltibia 32.6061
lfoot -17.5914 11.7094
ltoes -10.6831
2548
root 2.19379 17.689 7.19983 191.696 -113.318 -192.357
lowerback 4.64835 2.46445 -2.4778
upperback -1.38125 3.18359 1.22953
thorax -4.24053 1.66238 2.39261
lowerneck -26.2883 -1.8363 -11.893
upperneck 20.6099 -0.0598661 8.14729
head 10.9976 0.07029 4.9665
rclavicle -2.79277e-014 1.59028e-015
rhumerus 37.4588 -26.7969 -11.0467
rradius 97.4484
rwrist 8.33412
rhand -36.2453 2.77238
rfingers 7.12502
rthumb -9.34654 -27.0004
lclavicle -2.79277e-014 1.59028e-015
lhumerus 26.9065 23.0713 23.2744
lradius 100.296
lwrist 8.14792
lhand -20.996 12.0723
lfingers 7.12502
lthumb 5.37821 41.984
rfemur -12.7339 -3.10046 14.7765
rtibia 35.6308
rfoot -23.8636 -15.3363
rtoes 7.90291
lfemur -9.64894 -2.08015 -15.0873
ltibia 32.5385
lfoot -17.5106 11.9007
ltoes -10.2345
2549
root 2.23892 17.6888 7.19406 191.739 -113.09 -192.307
lowerback 4.73562 2.59253 -2.48746
upperback -1.16256 3.34682 1.08248
thorax -4.06424 1.73711 2.2331
lowerneck -26.39 -1.85662 -11.7349
upperneck 20.6977 -0.0924652 7.96595
head 11.0529 0.0436392 4.8711
rclavicle -4.74598e-015 1.27222e-014
rhumerus 35.1114 -24.8948 -10.6247
rradius 100.73
rwrist 9.38281
rhand -36.0248 3.46883
rfingers 7.12502
rthumb -9.13372 -26.3134
lclavicle -4.74598e-015 1.27222e-014
lhumerus 23.4254 21.6956 24.6272
lradius 101.587
lwrist 7.7258
lhand -21.285 12.0736
lfingers 7.12502
lthumb 5.09915 41.9923
rfemur -13.0835 -3.02971 14.6636
rtibia 35.7315
rfoot -24.0009 -14.7208
rtoes 5.09976
lfemur -9.80606 -2.15047 -15.2055
ltibia 32.4601
lfoot -17.4803 12.0764
ltoes -9.92738
2550
root 2.28554 17.6923 7.18971 192.093 -112.952 -192.572
lowerback 4.85607 2.65981 -2.40279
upperback -0.973684 3.43524 0.973498
thorax -3.92932 1.77382 2.06497
lowerneck -26.3828 -1.73787 -11.2016
upperneck 20.609 -0.0191611 7.5251
head 11.0102 0.0653006 4.62365
rclavicle 1.27744e-013 2.3059e-014
rhumerus 33.0195 -22.7073 -10.5728
rradius 103.741
rwrist 10.6407
rhand -35.5396 4.78191
rfingers 7.12502
rthumb -8.6655 -25.0202
lclavicle 1.27744e-013 2.3059e-014
lhumerus 19.9832 20.4808 26.0032
lradius 102.394
lwrist 7.7502
lhand -21.273 11.916
lfingers 7.12502
lthumb 5.11076 41.8344
rfemur -13.4413 -2.93196 14.7029
rtibia 35.8345
rfoot -23.8117 -13.844
rtoes 5.03701
lfemur -9.99832 -2.21088 -15.1788
ltibia 32.3722
lfoot -17.3278 12.3168
ltoes -10.3644
2551
root 2.33145 17.6959 7.18167 192.384 -112.885 -192.726
lowerback 4.92922 2.65624 -2.40084
upperback -0.752212 3.42523 0.869729
thorax -3.73361 1.76285 1.96045
lowerneck -26.4651 -1.57172 -10.5806
upperneck 20.505 0.0993687 7.07279
head 10.9739 0.114487 4.36681
rclavicle 3.72721e-015 5.56597e-015
rhumerus 31.0676 -20.267 -10.6948
rradius 106.535
rwrist 11.9019
rhand -35.4929 5.76327
rfingers 7.12502
rthumb -8.62044 -24.0407
lclavicle 3.72721e-015 5.56597e-015
lhumerus 16.6024 19.4679 27.3418
lradius 102.615
lwrist 7.78239
lhand -21.3561 12.197
lfingers 7.12502
lthumb 5.03054 42.1173
rfemur -13.8058 -2.85438 14.7041
rtibia 35.9018
rfoot -23.4599 -12.8513
rtoes 5.19606
lfemur -10.274 -2.21172 -15.1651
ltibia 32.3009
lfoot -17.2077 12.4134
ltoes -10.8358
2552
root 2.3766 17.6969 7.17314 192.726 -112.821 -192.923
lowerback 5.00261 2.63616 -2.4023
upperback -0.524581 3.39398 0.794251
thorax -3.53279 1.74162 1.88914
lowerneck -26.9119 -1.55261 -10.5482
upperneck 20.818 0.0813627 7.34987
head 11.1721 0.143373 4.48183
rclavicle -4.0726e-014 -1.11319e-014
rhumerus 29.0729 -17.6282 -10.7509
rradius 109.272
rwrist 13.0829
rhand -35.7263 6.3938
rfingers 7.12502
rthumb -8.84569 -23.4008
lclavicle -4.0726e-014 -1.11319e-014
lhumerus 13.4567 18.5848 28.8294
lradius 102.145
lwrist 7.91618
lhand -21.4752 13.2499
lfingers 7.12502
lthumb 4.9155 43.1729
rfemur -14.1407 -2.78252 14.7071
rtibia 35.9195
rfoot -22.9513 -11.8487
rtoes 4.96819
lfemur -10.57 -2.20591 -15.1119
ltibia 32.2535
lfoot -17.199 12.386
ltoes -10.6463
2553
root 2.42013 17.7001 7.16446 193.07 -112.774 -193.134
lowerback 5.10118 2.61535 -2.38953
upperback -0.287999 3.36158 0.708504
thorax -3.33565 1.71934 1.79853
lowerneck -27.3322 -1.59064 -10.5914
upperneck 21.0025 0.00264518 7.66572
head 11.3249 0.147349 4.61055
rclavicle 7.45443e-014 1.11319e-014
rhumerus 27.1441 -14.7296 -10.98
rradius 111.633
rwrist 14.5796
rhand -35.7309 7.37465
rfingers 7.12502
rthumb -8.85016 -22.4198
lclavicle 7.45443e-014 1.11319e-014
lhumerus 10.7217 17.8661 30.5704
lradius 100.906
lwrist 8.16133
lhand -21.6504 13.9524
lfingers 7.12502
lthumb 4.74639 43.8792
rfemur -14.4375 -2.62074 14.7203
rtibia 35.9207
rfoot -22.4737 -10.9846
rtoes 4.52319
lfemur -10.8448 -2.22615 -15.0426
ltibia 32.2036
lfoot -17.122 12.3879
ltoes -10.3312
